<?xml version="1.0" encoding="iso-8859-1"?>
<!-- Generator: Adobe Illustrator 16.0.0, SVG Export Plug-In . SVG Version: 6.00 Build 0)  -->
<!DOCTYPE svg PUBLIC "-//W3C//DTD SVG 1.1//EN" "http://www.w3.org/Graphics/SVG/1.1/DTD/svg11.dtd">
<svg version="1.1" id="Capa_1" xmlns="http://www.w3.org/2000/svg" xmlns:xlink="http://www.w3.org/1999/xlink" x="0px" y="0px"
	 width="33.776px" height="33.776px" viewBox="0 0 33.776 33.776" style="enable-background:new 0 0 33.776 33.776;"
	 xml:space="preserve">
<g>
	<path d="M28.591,30.68c-0.003-0.173-0.911-1.925-1.579-3.921c-0.604-1.803-1.694-3.043-2.416-4.079
		c-1.609-2.312-2.851-6.073-3.064-6.936s-0.521-2.649-0.338-3.247c0.183-0.597,1.133-3.742,1.377-4.545
		c0.242-0.805-0.391-2.364-0.937-2.598c-0.545-0.233-1.639-0.562-1.818-0.623c-0.179-0.062-0.318-0.41-0.467-0.598
		c-0.147-0.188,0.753-1.091,0.677-1.688c-0.078-0.598-0.313-2.052-1.587-2.39c-1.271-0.337-2.96,0.936-2.985,1.975
		c-0.009,0.338,0.104,0.805,0.104,0.805s-0.443-0.036-1.221,0.026c-1.637,0.129-2.286,3.81-2.571,4.286
		c-0.286,0.476-1.508,1.558-1.508,2.312c0,0.754,0.649,1.77,0.754,2.053c0.104,0.282-0.52,1.247-0.415,1.922
		c0.104,0.675,0.675,1.351,0.675,1.351s-0.779,1.221-0.805,2.181c-0.026,0.961,0.259,4.442,0.13,5.196
		c-0.13,0.753-0.87,1.253-0.87,1.253s-1.621,1.113-1.997,1.372c-0.376,0.26,0.858,0.456,0.858,0.456s-1.791,1.796-2.163,2.17
		c-0.375,0.374,0.614,0.059,0.614,0.059S5.591,28.848,5.221,29.2s1.73,1.811,2.518,2.002c1.168,0.286,3.085,0.157,3.085,0.157
		l-0.242,0.726c0,0,0.003,1.264-0.037,1.481c-0.041,0.218,1.948,0.286,2.018,0.11c0.071-0.177-0.121-1.279-0.121-1.279l1.005-0.13
		c0,0-0.045,0.884,0.163,0.961c0.208,0.079,2.52,0.208,2.52,0.208s1.447,0.156,1.688,0.182c0.24,0.026-0.129-1.531-0.129-1.531
		s2.1,0.101,3.43-0.927c0.134,0.375,0.308,1.678,0.583,1.999c0.276,0.323,1.595,0.328,1.646-0.166
		c0.1-0.932-1.312-2.357-1.312-2.357s1.987-0.786,1.649-1.201s-2.03-2.63-2.03-2.63s0.783-0.928,0.421-1.162
		c-0.364-0.234-1.4-0.909-1.4-0.909s0.673-0.519,0.282-0.782c-0.392-0.263-1.609-1.244-1.688-1.633
		c-0.076-0.39,0.701-1.325,0.701-1.325s3.144,4.338,3.818,6.054c0.401,1.022,1.936,3.809,2.025,3.975
		c0.091,0.166,0.84,0.067,0.84,0.067s-1.059,1.951-0.664,2.039c0.396,0.087,2.188,0.049,2.423-0.263
		C28.647,32.552,28.596,30.993,28.591,30.68z M16.901,3.769c0.185-0.66,0.272-1.072,0.803-1.002
		c0.265,0.036,0.454,0.318,0.788,0.571c0.198,0.151,0.647,0.19,0.647,0.448c0,0.686-1.049,1.769-1.584,1.769
		C17.021,5.555,16.725,4.394,16.901,3.769z M16.725,6.16c0,0,0.065,0.104,0.383,0.26c0.891-0.312,2.031-1.845,2.031-1.845
		l0.392,0.441c0,0-1.793,2.884-2.423,3.013C16.7,8.135,16.725,6.16,16.725,6.16z M15.617,3.63c0.535,0,0.815,0.713,0.815,1.593
		s-0.436,1.593-0.97,1.593c-0.536,0-1.318-0.713-1.318-1.593S15.08,3.63,15.617,3.63z M13.901,10.783
		c0.106-0.351,0.245-0.831,0.33-1.108c0.087-0.276,0.658-0.242,0.658-0.242l1.065-0.659c0,0-0.166-0.663-0.027-0.702
		c0.14-0.038,0.613,0.441,0.643,0.771c0.028,0.331,0.085,1.005,0.085,1.005s0.091,0.329,0.382,0.38
		c0.291,0.052,1.368,0.243,1.368,0.243l0.067-0.191c0,0,0.711,0.035,0.973-0.198c0.22-0.196,1.105-4.166,1.105-4.166
		s0.296-0.521,0.46-0.502c1.047,0.121,1.308,2.372,1.308,2.372s-1.299,4.381-1.386,4.589s-1.495,0.327-1.975,0.346
		c-0.623,0.025-0.741-0.252-0.734-0.621c0.008-0.401-0.779-0.673-1.499-0.799c-0.673-0.119-0.85-0.173-1.125-0.173
		c-0.277,0-0.571,0.849-1.005,1.073c-0.434,0.226-0.694-0.312-0.694-0.312S13.797,11.134,13.901,10.783z M14.647,23.019
		c-2.779,1.117-4.572,0.727-4.572,0.727l0.233-0.389c0,0,1.691,0.474,4.365-0.805c2.671-1.279,2.909-2.677,2.909-2.677l0.39,0.156
		C17.972,20.031,17.426,21.901,14.647,23.019z M17.686,15.174c1.585-0.364,3.169-1.117,3.169-1.117l0.156,0.987
		C21.011,15.044,18.854,15.408,17.686,15.174z"/>
</g>
<g>
</g>
<g>
</g>
<g>
</g>
<g>
</g>
<g>
</g>
<g>
</g>
<g>
</g>
<g>
</g>
<g>
</g>
<g>
</g>
<g>
</g>
<g>
</g>
<g>
</g>
<g>
</g>
<g>
</g>
</svg>
