<?xml version="1.0" encoding="iso-8859-1"?>
<!-- Generator: Adobe Illustrator 18.1.1, SVG Export Plug-In . SVG Version: 6.00 Build 0)  -->
<svg version="1.1" id="Capa_1" xmlns="http://www.w3.org/2000/svg" xmlns:xlink="http://www.w3.org/1999/xlink" x="0px" y="0px"
	 viewBox="0 0 21.803 21.803" style="enable-background:new 0 0 21.803 21.803;" xml:space="preserve">
<g>
	<g>
		<path style="fill:#030104;" d="M18.374,16.605l-4.076-2.101l-1.107-1.773l-0.757-4.503l2.219,1.092l-0.375,1.494
			c-0.13,0.519,0.185,1.041,0.699,1.17c0.077,0.021,0.157,0.03,0.235,0.03c0.432-0.002,0.823-0.293,0.935-0.729l0.565-2.25
			c0.11-0.439-0.103-0.897-0.511-1.101c0,0-5.303-2.603-5.328-2.612c-0.406-0.188-0.868-0.267-1.342-0.198
			c-0.625,0.088-1.158,0.407-1.528,0.86c-0.029,0.027-2.565,3.15-2.565,3.15l-1.95,0.525C2.974,9.8,2.67,10.327,2.809,10.843
			c0.116,0.43,0.505,0.713,0.93,0.713c0.083,0,0.168-0.011,0.252-0.033l2.252-0.606c0.196-0.055,0.37-0.167,0.498-0.324L7.75,9.346
			l0.725,4.026l-1.27,1.01c-0.379,0.304-0.541,0.802-0.411,1.269l1.469,5.271c0.148,0.532,0.633,0.881,1.16,0.881
			c0.107,0,0.216-0.015,0.324-0.045c0.641-0.178,1.016-0.842,0.837-1.482L9.33,15.774l1.948-1.498l1.151,1.791
			c0.115,0.186,0.277,0.334,0.471,0.436l4.371,2.25c0.177,0.092,0.363,0.135,0.552,0.135c0.438,0,0.856-0.238,1.072-0.653
			C19.198,17.635,18.965,16.91,18.374,16.605z"/>
		<circle style="fill:#030104;" cx="8.602" cy="2.568" r="2.568"/>
	</g>
</g>
<g>
</g>
<g>
</g>
<g>
</g>
<g>
</g>
<g>
</g>
<g>
</g>
<g>
</g>
<g>
</g>
<g>
</g>
<g>
</g>
<g>
</g>
<g>
</g>
<g>
</g>
<g>
</g>
<g>
</g>
</svg>
