<?xml version="1.0" encoding="utf-8"?>
<!-- Generator: Adobe Illustrator 15.0.0, SVG Export Plug-In . SVG Version: 6.00 Build 0)  -->
<!DOCTYPE svg PUBLIC "-//W3C//DTD SVG 1.1//EN" "http://www.w3.org/Graphics/SVG/1.1/DTD/svg11.dtd">
<svg version="1.1" id="Layer_1" xmlns="http://www.w3.org/2000/svg" xmlns:xlink="http://www.w3.org/1999/xlink" x="0px" y="0px"
	 width="500px" height="500px" viewBox="0 0 500 500" enable-background="new 0 0 500 500" xml:space="preserve">
<g>
	<path fill="#010101" d="M366.133,85.461c0,0-67.738-17.358-101.613-9.162c0,0-28.247,15.499-42.582,13.035
		c0,0-34.835-8.711-71.613,0c0,0-55.161-17.417-114.195,39.68c0,0-81.292,104.51,0,260.323c0,0,47.422,88.071,174.197,86.134
		c0,0,118.063,0.006,148.067-5.805c0,0,106.451-36.783,132.581-139.361C490.975,330.305,550.007,130.928,366.133,85.461z
		 M367.613,166.685h56.178l-56.178,82.147l-56.179-82.147H367.613z M272.525,230.178l43.387,71.823h-43.387h-43.38L272.525,230.178z
		 M170.526,166.685h56.176l-56.176,82.147l-56.177-82.147H170.526z M337.101,426.085l-10.643-25.156h-16.452l-5.811,25.156
		c0,0-35.807,4.838-44.51,3.872c-8.713,0.966-44.522-3.872-44.522-3.872l-5.807-25.156h-16.453l-10.645,25.156
		C74.839,404.794,72.902,305.117,72.902,305.117s43.548,38.714,76.454,36.779v21.289h22.259v-12.583c0,0,57.099,4.839,64.839,1.938
		v20.324h23.23h23.228V352.54c7.735,2.901,64.837-1.938,64.837-1.938v12.583h22.256v-21.289
		c32.903,1.937,76.457-36.778,76.457-36.778S444.524,404.794,337.101,426.085z"/>
	<path fill="#010101" d="M226.259,79.729c18.934-0.688,27.546-11.502,27.546-11.502c-16.812-21.752-31.513-35.302-43.575-43.729
		l-27.351,6.65c13.024,13.337,16.393,37.08,16.393,37.08C204.896,79,226.259,79.729,226.259,79.729z"/>
</g>
</svg>
