<?xml version="1.0" encoding="utf-8"?>
<!-- Generator: Adobe Illustrator 18.1.1, SVG Export Plug-In . SVG Version: 6.00 Build 0)  -->
<svg version="1.1" id="Layer_1" xmlns="http://www.w3.org/2000/svg" xmlns:xlink="http://www.w3.org/1999/xlink" x="0px" y="0px"
	 viewBox="0 0 612 792" enable-background="new 0 0 612 792" xml:space="preserve">
<g>
	<polygon fill="#FFFFFF" points="209,300 401.8,300 401.8,492.8 209,492.8 	"/>
	<path fill="#2E2E2E" d="M389.5,396.4c0,28.8-37.6,52.2-84.1,52.2c-46.4,0-84.1-23.4-84.1-52.2c0-28.8,37.6-52.2,84.1-52.2
		C351.8,344.2,389.5,367.5,389.5,396.4L389.5,396.4z"/>
	<path fill="#4B4B4B" d="M243.9,356.2c-17,10.6-26.4,24.8-26.4,40.1c0,15.3,9.4,29.6,26.4,40.1c16.5,10.2,38.3,15.9,61.5,15.9
		c23.2,0,45-5.6,61.5-15.9c17-10.6,26.4-24.8,26.4-40.1c0-15.3-9.4-29.6-26.4-40.1c-16.5-10.2-38.3-15.9-61.5-15.9
		C282.2,340.4,260.4,346,243.9,356.2L243.9,356.2z M247.9,430.1c-14.7-9.1-22.8-21.1-22.8-33.7c0-12.6,8.1-24.5,22.8-33.7
		c15.3-9.5,35.7-14.7,57.4-14.7c21.8,0,42.2,5.2,57.4,14.7c14.7,9.1,22.8,21.1,22.8,33.7c0,12.6-8.1,24.5-22.8,33.7
		c-15.3,9.5-35.7,14.7-57.4,14.7C283.6,444.8,263.2,439.6,247.9,430.1L247.9,430.1z"/>
	<path fill="#818181" d="M245.3,358.5c-16.2,10.1-25.2,23.5-25.2,37.9c0,14.3,8.9,27.8,25.2,37.9c16.1,10,37.4,15.5,60,15.5
		c22.7,0,44-5.5,60-15.5c16.2-10.1,25.2-23.5,25.2-37.9c0-14.3-8.9-27.8-25.2-37.9c-16.1-10-37.4-15.5-60-15.5
		C282.7,343,261.4,348.5,245.3,358.5L245.3,358.5z M222.4,396.4c0-28.2,37.2-51.1,83-51.1c45.7,0,83,22.9,83,51.1
		c0,28.2-37.2,51.1-83,51.1C259.6,447.5,222.4,424.6,222.4,396.4L222.4,396.4z"/>
	<polygon fill="#818181" points="367.3,418.4 366.5,418.4 366.5,417.7 369,417.7 369,418.4 368.2,418.4 368.2,420.5 367.3,420.5 	
		"/>
	<polygon fill="#818181" points="369.3,417.7 370.6,417.7 371,419.3 371,419.3 371.4,417.7 372.6,417.7 372.6,420.5 371.8,420.5 
		371.8,418.7 371.8,418.7 371.3,420.5 370.6,420.5 370.2,418.7 370.2,418.7 370.2,420.5 369.3,420.5 	"/>
	<path fill="#4B4B4B" d="M368.3,408.5L368.3,408.5c-0.9-1.2-2.2-1.9-3.6-2.1c-0.2,0-0.3,0-0.5,0c0.9-3.7,1.3-7.4,1.6-10.9
		c0.6-0.8,1.1-1.5,1.6-2.2c0.3-0.4,0.6-1,0.9-1.5c0.8-1.5,1-2.8,1-3.9c0-1.1-0.2-2-0.5-2.6c-1-2.3-3.3-3.9-5.9-4
		c-4.2-0.1-7.8,3.6-8.4,8.3c0,0,0,0.1,0,0.1c0,0-0.2,1.9-0.2,2.1c-2.4,2.7-6.5,7-12.3,11.7c1.8-4.8,3.5-9.7,3.5-9.7
		c0,0-0.2,0.4-0.2,0.4l0.4-1.1c0,0-0.1,0.3-0.1,0.3l0.8-2.2c0,0,0-0.1,0-0.1c0.1-0.3,0.6-1.4,1-2.3c1-2.2,2.6-5.5,4.3-10
		c1.6-4.1,3.4-9.4,3.4-11.9c0-3.3-2.6-6-5.7-6c-4.4,0-6,4.2-7,7c0,0-7.7,20.4-7.9,21c-0.8,1.5-2.6,3.3-4.9,5.1
		c-0.3-1.4-0.8-2.8-1.6-3.9c-1.9-3-5.1-4.8-8.8-4.8c-3.7,0-7.8,1.8-11.5,5c-3.4,3-6.2,7-8,11.4c-0.2,0.4-0.4,0.9-0.5,1.4
		c-0.6,0.5-1.2,0.9-1.2,0.9c-1.1,0.8-2.2,1.7-3.2,2.5c3.1-5,6-10.7,8.7-17.2c3.5-8.9,5.5-16.2,5.5-20.5c0-1.7-0.3-3.2-0.8-4.3
		c-1-2.2-2.8-3.5-5-3.5c-3.2,0-6.2,2.6-9.6,8.5c-2.5,4.4-5.2,10.4-7.7,17.5c-3.8,0.4-7.5,1.7-10.7,3.7c0.5-1.4,1-2.9,1.5-4.4l0,0
		c2-6.5,2.9-11.1,2.9-14.5c0-7.2-4.6-9.8-8.5-9.8c-6,0-13,6.5-17.8,16.5c-1.4,2.9-3,6.3-3.7,10c0,0-0.1,0.3-0.1,0.3
		c-0.2,0.7-0.4,1.8-0.4,3c0,4,2.8,5.4,3.6,5.7l0,0c1.8,0.6,3.6,0.4,5.2-0.5c2.8-1.7,3.8-5.2,4.1-7.2c0.4-2.1,1.1-4.3,2.3-6.7
		c0.7-1.5,1.4-2.8,2.1-3.9c-0.5,1.9-1.2,4.1-2.2,6.6c-2,5.5-4.4,10.4-7.4,14.9c-2.4,3.5-4.7,6.1-7.2,8.3c-1.7,1.5-2.3,1.8-3,1.7
		c0,0-0.5-0.1-0.5-0.1c-1.5-0.3-4.5-1-6.7,1.2c-0.8,0.8-2,2.5-1.4,5.2c1,4.3,6.6,5.7,8.6,5.7c5.3,0,11.5-4.2,17.3-11.5
		c0.6,7.9,5.7,11.5,10.7,11.5c2.3,0,4.7-0.8,7.4-2.6c1.4,1.7,3.3,2.6,5.6,2.6c3,0,6.1-1.8,11.4-5.8c0.2,0.4,0.4,0.8,0.7,1.2
		c1.9,3,5.1,4.8,8.8,4.8c3.6,0,7.5-1.6,11.1-4.7c2.9-2.5,5.4-5.7,7.2-9.3c0.1-0.1,0.3-0.1,0.4-0.2c-0.1,0.2-0.5,1.3-0.5,1.3
		c-0.9,2.5-1.6,4.4-1.6,6.3c0,3.7,2.6,6.4,6.3,6.4c2.3,0,4.6-1.2,8.3-3.8c0.4,0.7,0.9,1.4,1.6,1.9c2.5,2.1,8.7,3.5,13.2,0.8
		c0.2-0.1,0.4-0.2,0.8-0.5c3.1-0.2,7.4-1.1,11.6-4.4c1.5-1.2,2.4-3,2.4-4.7C369.5,410.7,369.1,409.5,368.3,408.5L368.3,408.5z
		 M281,406c-2.7,2.9-4.2,4.1-5.1,4.7c-0.1-0.3-0.1-0.7-0.1-1.3c0-3.4,2.6-7.4,6.4-9.5C281.7,402,281.3,404,281,406L281,406z
		 M317.1,401.9c-1.9,4.7-5.3,7.8-7.2,8.9c0-1,0.2-2.4,1-4.3c1.9-4.7,5.3-7.8,7.2-8.9C318,398.6,317.8,400.2,317.1,401.9L317.1,401.9
		z"/>
	<path fill="#818181" d="M271.2,364.7c-4,0-10.3,4.6-15.3,14.9c-1.3,2.8-2.8,6-3.5,9.4c0,0-0.1,0.3-0.1,0.3c-0.3,1.3-1,4.5,1.4,5.4
		c1,0.3,2,0.3,2.8-0.3c2-1.2,2.7-4.3,2.8-5.2c0.4-2.4,1.2-4.9,2.5-7.5c4.2-8.5,7.9-11.2,8.8-11.2c0.1,0,0.4,0,0.4,0.9
		c0,1.3-1,6.6-4.1,15.2c-2,5.7-4.6,10.8-7.7,15.5c-2.5,3.7-5,6.5-7.7,8.9c-1.9,1.6-3.3,2.6-5.2,2.4c0,0-0.7-0.1-0.7-0.1
		c-1.3-0.3-3-0.6-4.1,0.5c-0.4,0.4-0.9,1.3-0.6,2.6c0.5,2.4,4.5,3.5,5.9,3.5c5.3,0,12.3-5.7,18.4-15c3.5-5.4,6.4-11.6,8.9-19.6
		c1.9-6.2,2.8-10.6,2.8-13.6C276.9,367.3,274.8,364.7,271.2,364.7L271.2,364.7z"/>
	<path fill="#FFFFFF" d="M275.4,371.7c0-3.6-1.5-5.4-4.1-5.4c-3.6,0-9.4,4.7-13.9,14.1c-1.4,2.9-2.8,5.9-3.4,9c-0.2,1-0.9,3.5,0.3,4
		c2.4,0.8,3.4-3,3.6-4.3c0.5-2.7,1.4-5.4,2.6-7.9c3.9-8,8.1-12,10.1-12c1.1,0,1.9,0.8,1.9,2.4c0,1.5-1,7-4.1,15.7
		c-2.1,6-4.8,11.2-7.9,15.9c-2.3,3.4-4.9,6.5-8,9.2c-1.9,1.6-3.7,3.1-6.4,2.7c-1.3-0.2-4.2-1.3-3.7,1.1c0.3,1.3,3.2,2.3,4.4,2.3
		c4.2,0,10.8-4.6,17.1-14.3c3.8-5.8,6.5-12.2,8.7-19.2C274.4,379.1,275.4,374.6,275.4,371.7L275.4,371.7z"/>
	<path fill="#818181" d="M366.1,410.2L366.1,410.2c-0.5-0.6-1.1-0.9-1.8-1c-0.6-0.1-1.5,0-2.5,0.9c-0.8,0.6-1.5,1.1-2.3,1.5
		c2.3-5.2,3.1-11.7,3.5-17.2c0.8-1,1.4-1.9,2-2.7c0.3-0.4,0.6-0.9,0.7-1.2c0.5-0.9,0.7-1.8,0.7-2.6c0-0.5-0.1-1.1-0.3-1.5
		c-0.6-1.4-1.9-2.2-3.4-2.2c-2.4-0.1-5.1,2.1-5.5,5.8l0,0l-0.2,2.2c0,0,0,0.4-0.1,0.8c-2.6,3-7.8,8.6-15.7,14.8
		c-2.3,1.8-4,3-5.2,3.8c0.9-2.5,6.8-18.6,6.8-18.6l-0.1,0.1l0.2-0.7l0,0.1l0.8-2.2l0,0c0.2-0.5,0.6-1.4,1.2-2.6
		c1-2.2,2.5-5.4,4.2-9.8c2-5.2,3.2-9.3,3.2-10.9c0-1.8-1.3-3.2-2.9-3.2c-2.5,0-3.4,2.6-4.4,5.2c0,0-7.4,19.6-8,21.2
		c-1.4,2.7-5,6-10,9.1c0.1-0.6,0.1-1.2,0.1-1.8c0-2.3-0.5-4.3-1.5-5.8c-1.4-2.2-3.7-3.5-6.5-3.5c-6.1,0-13.4,6.3-16.9,14.7
		c-0.3,0.6-0.5,1.3-0.7,2c-0.5,0.4-1.9,1.4-1.9,1.4c-4.7,3.6-9.2,7.1-10.6,7.4c-0.1-0.2-0.3-0.7-0.3-1.5c0-0.7,0.1-1.5,0.2-2.2
		c4.4-5.8,8.3-13.1,11.8-21.7c3.4-8.5,5.3-15.6,5.3-19.5c0-4.6-2.3-5-3-5c-5.8,0-12.8,18.7-15.3,25.9c-5.6,0.2-10.8,2.3-14.8,6.1
		c-4,3.8-6.3,8.9-6.3,13.9c0,6.3,3,10.2,8,10.2c2.4,0,5.1-1.3,8.4-4.1c0.7,3.5,3,4.1,4.5,4.1c2.7,0,6.2-2.6,13-7.6
		c0.2,1.7,0.7,3.2,1.4,4.4c1.4,2.2,3.7,3.5,6.5,3.5c5.8,0,12.5-5.5,16.2-13.3c1.3-0.6,2.9-1.6,4.6-2.6c0,0,0,0,0,0l2.1-1.4
		c0.4-0.3,0.8-0.5,1.2-0.8c-1.5,4.1-3.3,8.9-3.3,8.9c-0.8,2.2-1.4,3.9-1.4,5.3c0,2.2,1.3,3.5,3.5,3.5c2,0,4.6-1.6,9.2-5.1l3-2.3
		c5.1-3.9,9.1-7.5,12.1-10.4c-1,5.2-2.4,8.8-4.3,10.8c-0.5,0-1.2-0.1-1.2-0.1c-1-0.1-2-0.1-3-0.1c-1.3,0-4.4,0-5.2,2.4
		c-0.4,1-0.2,2.4,1.1,3.6c1.9,1.5,6.7,2.5,10,0.6c0.2-0.1,0.6-0.4,1.3-0.9c3-0.1,6.8-0.7,10.7-3.9c0.9-0.7,1.3-1.6,1.3-2.5
		C366.7,411.3,366.5,410.7,366.1,410.2L366.1,410.2z M286.2,395.5c-1.2,4.4-2.1,8.2-2.5,11.7c-4.1,4.4-6.8,6.6-8.2,6.6
		c-1.5,0-2.5-1.8-2.5-4.5C273,403.5,278.8,396.5,286.2,395.5L286.2,395.5z M293.3,391.8c1.8-5.7,3.6-10.1,5.2-13.4
		C297.4,382.2,295.7,386.7,293.3,391.8L293.3,391.8z M319.2,394.3c0.7,0,0.9,0.2,1.2,0.6c0.1,0.2,0.5,1,0.5,2.4
		c0,1.7-0.5,3.8-1.2,5.7c-2.6,6.3-8,11-11,11c-0.7,0-0.9-0.2-1.2-0.6c-0.6-1-1-4,0.7-8C310.9,399,316.2,394.3,319.2,394.3
		L319.2,394.3z M302.8,405.9c-0.1,0.1-0.2,0.2-0.3,0.2C302.1,405.9,302.3,405.8,302.8,405.9L302.8,405.9z"/>
	<path fill="#FFFFFF" d="M364.9,411.1c-0.5-0.7-1.3-0.5-2.1,0.1c-2.2,1.8-4.3,2.6-6.4,3c3.9-5.6,4.8-14.8,5.2-20.4
		c0.9-1.1,1.6-2.1,2.2-3c0.2-0.4,0.5-0.7,0.6-1.1c0.5-1,0.7-2,0.3-2.8c-0.3-0.8-1.1-1.3-2-1.3c-1.7,0-3.6,1.7-4,4.5l-0.2,2.2
		c0,0.4-0.1,0.8-0.1,1.3c-3.6,4.3-9.1,9.8-16.3,15.3c-4.7,3.6-7.4,5.4-8,5.4c-0.9,0-0.2-1.5-0.1-1.8l7.3-20.1
		c0.1-0.1,0.1-0.3,0.2-0.4l0,0l0.8-2.2c0.5-1.5,2.7-5.6,5.4-12.5c2.2-5.8,3.1-9.3,3.1-10.4c0-0.9-0.7-1.7-1.4-1.7
		c-1.3,0-1.9,1.4-3,4.2l-8,21.3c-2.1,4-7.8,8.3-13.6,11.6c1.1-3.9,1-7.5-0.5-9.9c-1.1-1.8-3-2.8-5.2-2.8c-5.5,0-12.3,6-15.5,13.7
		c-0.3,0.8-0.8,2.3-0.8,2.3c-7.8,6-12,9.4-13.9,9.4c-0.9,0-1.6-1.2-1.6-3c0-0.8,0.1-1.7,0.3-2.8c4.4-5.7,8.4-13,11.8-21.7
		c3.6-9.1,5.2-15.6,5.2-18.9c0-2.2-0.6-3.5-1.5-3.5c-2.7,0-8.3,8.4-14.2,25.9h-0.1c-11.8,0-20.5,9.1-20.5,18.6
		c0,5.5,2.5,8.7,6.4,8.7c2.7,0,5.8-2,9.7-5.8v0.6c0,3.5,1.1,5.1,3.3,5.1c2.5,0,6.9-3.4,14.5-9.2c-0.3,2.6,0.1,4.9,1.2,6.6
		c1.1,1.8,3,2.8,5.2,2.8c5.3,0,11.7-5.6,15.1-12.9c1.7-0.8,4.3-2.3,7-4.1l0,0c1-0.7,2.4-1.6,4.1-3c0.4-0.3,0.8-0.7,1.2-1l-5.1,13.8
		c-0.8,2.2-1.3,3.7-1.3,4.8c0,1.4,0.7,2,2,2c1.6,0,4.2-1.7,8.3-4.8c0.9-0.7,1.9-1.4,3-2.3c6.3-4.8,11.4-9.5,15.2-13.6
		c-0.7,5.9-2.1,13.4-5.9,16.7c-0.6,0-1.2-0.1-1.8-0.1c-1-0.1-2-0.1-2.9-0.1c-1.6,0-3.4,0.2-3.8,1.4c-0.1,0.2-0.3,1.1,0.6,1.9
		c1.3,1.1,5.5,2.1,8.2,0.4c0.2-0.1,0.8-0.5,1.6-1.1c3.1-0.1,6.7-0.7,10.3-3.6C365,412.8,365.5,411.9,364.9,411.1L364.9,411.1z
		 M301.6,370c-0.1,5.7-3.9,18.8-13,33.3C292.3,387,297.5,375.5,301.6,370L301.6,370z M285.1,407.9c-4.4,4.9-7.5,7.5-9.6,7.5
		c-2.2,0-4-2.2-4-6c0-7.3,7.5-15.5,16.6-15.5h0.1C286.8,398.9,285.6,403.6,285.1,407.9L285.1,407.9z M321.1,403.5
		c-2.6,6.3-8.3,12-12.4,11.9c-1.1,0-1.9-0.4-2.4-1.3c-0.9-1.5-1.3-4.9,0.6-9.4c2.6-6.3,8.3-12,12.4-11.9c1.1,0,1.9,0.4,2.4,1.3
		c0.4,0.7,0.7,1.8,0.7,3.2C322.4,398.9,322,401.1,321.1,403.5L321.1,403.5z"/>
</g>
</svg>
