<?xml version="1.0" encoding="iso-8859-1"?>
<!-- Generator: Adobe Illustrator 16.0.0, SVG Export Plug-In . SVG Version: 6.00 Build 0)  -->
<!DOCTYPE svg PUBLIC "-//W3C//DTD SVG 1.1//EN" "http://www.w3.org/Graphics/SVG/1.1/DTD/svg11.dtd">
<svg version="1.1" id="Capa_1" xmlns="http://www.w3.org/2000/svg" xmlns:xlink="http://www.w3.org/1999/xlink" x="0px" y="0px"
	 width="318.144px" height="318.144px" viewBox="0 0 318.144 318.144" style="enable-background:new 0 0 318.144 318.144;"
	 xml:space="preserve">
<g>
	<g>
		<path d="M318.144,311.904c-18.217-44.956-76.336-66.684-117.093-76.786c-3.63-5.193-6.281-13.696-0.679-46.847
			c9.59-9.496,17.513-18.294,19.346-20.36l0.502-0.549l5.572-30.486c8.021-47.315,4.106-80.74-11.625-99.358
			c-11.288-13.372-26.315-16.176-36.925-16.176c-3.268,0-6.178,0.264-8.581,0.598c0,0.021,0.011,0.031,0.011,0.054l0.13,0.567v0.583
			v1.458v2.685c2.304-0.347,5.183-0.637,8.44-0.637c9.486,0,22.892,2.48,32.876,14.294c14.674,17.365,18.186,49.35,10.449,95.013
			l-5.292,28.992c-4.216,4.702-9.279,10.103-14.593,15.493c-0.869,0.891-1.75,1.771-2.63,2.651
			c-0.891,0.891-1.792,1.771-2.692,2.651c-13.334,13.069-27.103,24.741-32.747,24.741c-5.646,0-19.417-11.672-32.751-24.741
			c-0.903-0.88-1.799-1.761-2.69-2.651c-0.885-0.881-1.761-1.761-2.63-2.651c-5.313-5.391-10.369-10.78-14.592-15.493l-5.292-28.958
			c-0.217-1.295-0.396-2.543-0.598-3.814c-1.15,0.521-2.19,0.598-2.286,0.598c-0.106,0-0.184-0.036-0.29-0.042
			c-1.126-0.052-2.074-0.37-2.854-0.921c0.259,1.69,0.502,3.365,0.795,5.095l5.566,30.455l0.5,0.549
			c1.835,2.066,9.766,10.869,19.358,20.366c4.761,28.205,3.547,38.582,0.753,44.33C82.267,241.388,11.192,262.785,0,311.904h159.071
			H318.144z M114.664,258.663c0-4.856,2.408-9.673,6.962-13.929l0.567-0.533c1.124-1,2.376-1.968,3.723-2.88l0.795-0.802
			c1.903-2.403,3.834-4.826,5.116-9.14c1.877-6.312,2.356-16.73-0.64-36.978c11.765,11.082,24.539,21.376,31.41,21.376
			c6.872,0,19.646-10.294,31.411-21.386c-3.34,22.535-2.356,32.892,0.108,39.063c1.264,3.159,2.921,5.235,4.567,7.312l0.59,0.549
			c1.408,0.953,2.683,1.947,3.816,2.962l0.481,0.445c4.552,4.257,6.96,9.072,6.96,13.929c0,14.986-21.51,27.176-47.939,27.176
			C136.161,285.828,114.664,273.648,114.664,258.663z"/>
		<path d="M110.581,27.657c4.135,0,7.907,0.737,10.186,1.292c1.4,0.347,2.239,0.622,2.239,0.622
			c-1.597,0.212-3.086,0.567-4.502,1.018C98.576,36.925,96.471,64.97,96.471,64.97c0.956-1.46,1.898-2.731,2.833-3.925
			c1.468-1.872,2.9-3.467,4.27-4.777c1.489-1.421,2.889-2.519,4.189-3.395c4.687-3.148,7.92-3.192,7.995-3.192l0,0
			c-4.2,2.154-7.524,5.211-10.175,8.849c-2.317,3.182-4.109,6.81-5.458,10.716c-6.638,19.255-2.708,44.988,0.018,54.476
			c0.678,2.361,1.282,3.739,1.626,3.739c0.197,0,0.313-0.436,0.313-1.362c0-1.563,0.153-3.233,0.415-4.963
			c1.74-11.591,8.435-25.606,8.435-25.606c-11.262,52.293,31.374,67.575,31.374,67.575c-48.384-66.785,21.184-106.19,21.184-106.19
			V51.82l-12.87-6.438l12.87-3.749l-6.431-6.165l6.437-4.295v-2.827v-2.742v-2.47c-0.021-0.085-0.047-0.16-0.073-0.243
			c-3.831-16.635-17.09-16.65-17.09-16.65c5.794,5.794,2.83,12.608,1.414,15.102c-0.355,0.619-0.614,0.986-0.614,0.986
			c-0.388-0.334-0.764-0.611-1.144-0.924c-7.159-5.864-13.903-8.14-20.029-8.14c-19.521,0-32.71,22.706-32.726,22.737
			C97.139,29.363,104.277,27.657,110.581,27.657z"/>
	</g>
</g>
<g>
</g>
<g>
</g>
<g>
</g>
<g>
</g>
<g>
</g>
<g>
</g>
<g>
</g>
<g>
</g>
<g>
</g>
<g>
</g>
<g>
</g>
<g>
</g>
<g>
</g>
<g>
</g>
<g>
</g>
</svg>
