<?xml version="1.0" ?><svg height="512" id="svg4156" version="1.1" width="512" xmlns="http://www.w3.org/2000/svg" xmlns:cc="http://creativecommons.org/ns#" xmlns:dc="http://purl.org/dc/elements/1.1/" xmlns:inkscape="http://www.inkscape.org/namespaces/inkscape" xmlns:rdf="http://www.w3.org/1999/02/22-rdf-syntax-ns#" xmlns:sodipodi="http://sodipodi.sourceforge.net/DTD/sodipodi-0.dtd" xmlns:svg="http://www.w3.org/2000/svg"><defs id="defs4158"/><g id="layer1" transform="translate(0,448)"><g id="g32326" style="fill:#4d4d4d;fill-opacity:1" transform="matrix(0.92422971,0,0,0.92422971,7629.0653,-14540.205)"><path d="m -8055,15734.25 c -15.8006,0 -29.0962,15.726 -32.9688,37 -8.9443,5.583 -16.8824,13.347 -23.375,22.75 l -38.0937,-32.719 -58.4063,42.719 c -3.0365,2.218 -3.6882,6.494 -1.4687,9.531 2.2175,3.036 6.4947,3.688 9.5313,1.469 l 49.6562,-36.312 31.75,27.25 c -6.4348,12.893 -10.4789,27.894 -11.4062,43.968 l -33.125,-24.437 -72.3438,73.781 c -2.638,2.69 -2.5928,6.991 0.094,9.625 2.6918,2.639 6.9889,2.597 9.625,-0.09 l 64.0624,-65.312 31.875,23.531 c 0.9785,12.032 3.7081,23.404 7.875,33.688 20.3061,-54.685 74.7917,-95.647 133.5313,-97.907 l 28.8437,-24.156 51.1876,36.531 c 3.0537,2.183 7.3472,1.48 9.5312,-1.594 2.1821,-3.055 1.4489,-7.318 -1.625,-9.5 l -59.7812,-42.656 -38.75,32.438 c -6.4905,-9.348 -14.3787,-17.049 -23.25,-22.594 -3.8727,-21.274 -17.1865,-37 -32.9688,-37 z m 73.5,130.312 c -22.8245,0.225 -45.0027,10.201 -61.0625,26.157 -16.5953,15.475 -25.4531,37.698 -26.0313,60.156 4.4082,1.026 8.9507,1.563 13.5938,1.563 20.3279,0 38.7833,-10.303 52.3125,-27.032 l 43.875,0.906 34.2813,76.657 c 1.5456,3.437 5.5631,4.964 9,3.437 3.4377,-1.546 4.9638,-5.594 3.4374,-9.031 l -37.8124,-84.5 -43.7813,-0.906 c 7.2019,-12.983 11.9171,-28.365 13.2813,-45 l 3.2812,-2.375 c -0.719,-0.01 -1.4351,-0.04 -2.1562,-0.03 -0.7375,-0.01 -1.4825,0 -2.2188,0 z m -143.9062,47.438 -33.5938,0.719 -36.9062,83.219 c -1.5275,3.453 0.033,7.475 3.4687,9 3.4541,1.525 7.4717,-0.02 9,-3.469 l 33.4063,-75.313 21.6562,-0.468 c 0.7613,-4.627 1.7342,-9.201 2.9688,-13.688 z" id="path13-1-1" style="fill:#4d4d4d;fill-opacity:1" transform="translate(0,-448)"/><path d="m -7980.1941,15366.702 c 35.5271,0 71.0479,13.508 98.0427,40.504 53.9865,53.989 53.9897,142.071 0,196.06 -53.9888,53.994 -142.0966,54.015 -196.0854,0.02 -53.9897,-53.989 -53.9897,-142.095 0,-196.085 26.9945,-26.995 62.5156,-40.504 98.0427,-40.504 z m 0,38.059 c -25.6453,0 -51.2819,9.855 -70.9569,29.53 -39.3459,39.35 -39.35,102.564 0,141.915 39.35,39.35 102.5638,39.35 141.9139,0 39.3523,-39.351 39.3491,-102.565 0,-141.915 -19.6755,-19.675 -45.3117,-29.53 -70.957,-29.53 z" id="path32305" style="font-size:medium;font-style:normal;font-variant:normal;font-weight:normal;font-stretch:normal;text-indent:0;text-align:start;text-decoration:none;line-height:normal;letter-spacing:normal;word-spacing:normal;text-transform:none;direction:ltr;block-progression:tb;writing-mode:lr-tb;text-anchor:start;baseline-shift:baseline;color:#2d2d2d;fill:#4d4d4d;fill-opacity:1;stroke:none;stroke-width:68.23180389;marker:none;visibility:visible;display:inline;overflow:visible;enable-background:accumulate;font-family:Sans;-inkscape-font-specification:Sans"/><path d="m -7849.0907,15578.088 120.1402,120.14 c 14.8018,14.802 14.8018,38.622 0,53.424 -14.8001,14.801 -38.6468,14.801 -53.4478,0 l -119.0428,-119.043 c 3.2499,-1.99 6.4208,-4.094 9.5023,-6.336 18.0325,-12.409 32.5006,-29.121 42.8481,-48.185 z" id="path32307" style="fill:#4d4d4d;fill-opacity:1;stroke:none"/></g></g></svg>