<?xml version="1.0" ?><!DOCTYPE svg  PUBLIC '-//W3C//DTD SVG 1.1//EN'  'http://www.w3.org/Graphics/SVG/1.1/DTD/svg11.dtd'><svg enable-background="new 0 0 155 155" height="155px" id="Layer_1" version="1.1" viewBox="0 0 155 155" width="155px" xml:space="preserve" xmlns="http://www.w3.org/2000/svg" xmlns:xlink="http://www.w3.org/1999/xlink"><g><circle cx="77.5" cy="77.5" fill="#90DEA9" r="77.5"/><g><path d="M106.673,67.695l-1.96-1.961l2.974-2.973c2.722-2.727,2.722-7.157,0.001-9.874    c-1.321-1.322-3.074-2.05-4.938-2.05s-3.617,0.728-4.937,2.048c-3.805,3.8-9.996,3.8-13.801,0.002    c-3.802-3.809-3.801-10.002-0.002-13.807l1.963,1.959c-2.722,2.725-2.722,7.16,0,9.887c2.723,2.717,7.155,2.718,9.879-0.002    c1.842-1.844,4.292-2.86,6.897-2.86s5.056,1.017,6.898,2.862c3.802,3.796,3.804,9.984,0.001,13.795L106.673,67.695z" fill="#FFFFFF"/><g><rect fill="#FFFFFF" height="4.869" width="2" x="83.991" y="29.281"/><rect fill="#FFFFFF" height="2" transform="matrix(0.5003 0.8658 -0.8658 0.5003 68.8145 -53.57)" width="4.868" x="78.386" y="31.836"/><rect fill="#FFFFFF" height="2.001" transform="matrix(0.8658 0.5003 -0.5003 0.8658 28.3882 -34.0916)" width="4.868" x="75.328" y="34.887"/><rect fill="#FFFFFF" height="2" width="4.869" x="74.207" y="39.061"/><rect fill="#FFFFFF" height="1.999" transform="matrix(0.5003 0.8659 -0.8659 0.5003 85.5084 -53.5725)" width="4.87" x="86.733" y="46.296"/><rect fill="#FFFFFF" height="2" transform="matrix(0.866 0.5 -0.5 0.866 34.4786 -40.1846)" width="4.867" x="89.787" y="43.242"/><rect fill="#FFFFFF" height="2" width="4.869" x="90.906" y="39.061"/><rect fill="#FFFFFF" height="4.867" transform="matrix(0.5003 0.8659 -0.8659 0.5003 77.1577 -61.9167)" width="2.001" x="91.22" y="33.454"/><rect fill="#FFFFFF" height="4.868" transform="matrix(0.8659 0.5001 -0.5001 0.8659 28.3752 -40.1938)" width="1.999" x="88.168" y="30.402"/></g><g><path d="M108.311,94.904c0,17.023-13.798,30.814-30.811,30.814c-17.018,0-30.811-13.791-30.811-30.814     c0-17.014,13.793-30.807,30.811-30.807C94.513,64.098,108.311,77.891,108.311,94.904z" fill="#3F4A5A"/><path d="M58.416,91.9c-0.311,0-0.625-0.047-0.936-0.146c-1.621-0.516-2.518-2.249-2.002-3.87     c2.266-7.125,7.872-12.731,14.998-14.997c1.621-0.515,3.354,0.38,3.869,2.003c0.516,1.622-0.381,3.354-2.002,3.87     c-5.223,1.66-9.332,5.77-10.993,10.991C60.934,91.063,59.721,91.9,58.416,91.9z" fill="#FFFFFF"/><path d="M110.107,75.373c0.543-0.543,0.879-1.293,0.879-2.121s-0.336-1.578-0.879-2.121l-8.828-8.83     c-0.543-0.544-1.293-0.88-2.123-0.879c-0.828,0-1.578,0.336-2.121,0.879l-5.282,5.287L104.82,80.66L110.107,75.373z" fill="#333C49"/></g></g></g></svg>