<?xml version="1.0" ?><!DOCTYPE svg  PUBLIC '-//W3C//DTD SVG 1.1//EN'  'http://www.w3.org/Graphics/SVG/1.1/DTD/svg11.dtd'><svg enable-background="new 0 0 512 512" height="512px" id="Layer_1" version="1.1" viewBox="0 0 512 512" width="512px" xml:space="preserve" xmlns="http://www.w3.org/2000/svg" xmlns:xlink="http://www.w3.org/1999/xlink"><g><circle cx="256.389" cy="256.494" fill="#00BABA" r="254.389"/><path d="M349.009,236.914l-19.507-1.247c-8.656-0.553-17.982-1.119-20.725-1.258   c-2.743-0.139-11.656-0.54-13.713-0.606s-4.862-0.155-6.233-0.196s-6.669-0.143-8.726-0.18c-2.057-0.037-5.423-0.077-7.479-0.089   c-2.057-0.011-8.227,0.002-13.712,0.03c0,0,0,0-4.986,0.017c-4.294,0.105-4.294,0.105-4.294,0.105   c-4.723,0.102-7.082-1.979-5.241-4.624s5.3-7.652,7.689-11.126s6.281-9.173,8.65-12.664c2.369-3.49,6.228-9.215,8.576-12.722   c2.348-3.507,6.173-9.259,8.499-12.783s8.104-12.353,12.839-19.62c0,0,2.573-3.949,8.064-12.61   c2.765-4.315,2.765-4.315,2.765-4.315c2.992-4.785,7.259-11.651,9.481-15.257c2.223-3.606,6.439-10.511,9.37-15.345   c0,0,0,0,2.656-4.401c2.665-4.394,5.267-8.838,7.861-13.288c2.621-4.429,5.154-8.927,7.711-13.406   c2.527-4.503,2.527-4.503,2.527-4.503c2.557-4.706,1.602-5.857-2.053-2.819c-0.359,0.245-23.372,17.731-23.809,18.095   c-0.548,0.374-1.182,0.875-1.913,1.527c0,0,0,0-3.802,3.494c-3.771,3.518-7.568,7.017-11.276,10.585   c-3.735,3.547-7.462,7.101-11.126,10.704c-3.673,3.596-3.673,3.596-3.673,3.596c-4.031,3.963-9.783,9.653-12.782,12.645   c-2.999,2.992-8.7,8.721-12.67,12.733c0,0,0,0-3.565,3.682c-7.168,7.334-10.421,10.745-10.421,10.745   c-5.985,6.278-13.251,13.929-16.146,17.003c-2.895,3.074-7.615,8.118-10.488,11.208c-2.874,3.091-7.559,8.162-10.412,11.269   c-2.853,3.107-7.505,8.205-10.338,11.328s-7.453,8.246-10.268,11.383c-2.814,3.138-7.404,8.284-10.2,11.437   c-2.796,3.152-8.125,9.177-11.842,13.389c0,0,0,0-3.347,3.854c-3.348,3.853-3.348,3.853-3.348,3.853   c-3.683,4.238-11.312,13.097-16.952,19.687l-8.36,9.768c-5.64,6.59-3.182,12.57,5.461,13.29l15.682,1.305   c8.644,0.72,17.399,1.449,19.456,1.62c2.057,0.171,5.423,0.43,7.48,0.575s5.984,0.403,8.727,0.573c0,0,0,0,2.493,0.151   c2.493,0.142,2.493,0.142,2.493,0.142c2.743,0.141,6.669,0.331,8.726,0.423c2.057,0.092,5.423,0.222,7.48,0.288   s8.228,0.217,13.713,0.335c0,0,0,0,4.986,0.111c3.451,0.004,3.451,0.004,3.451,0.004c3.796,0.028,5.545,1.989,3.886,4.358   c0,0,0,0-1.486,2.171c-2.797,4.08-5.634,8.126-8.396,12.233c-2.772,4.099-5.569,8.178-8.302,12.307   c-2.75,4.116-5.5,8.233-8.206,12.383c-2.729,4.133-5.424,8.293-8.106,12.462c-2.703,4.153-5.336,8.362-8.004,12.543   c-2.633,4.208-5.283,8.404-7.881,12.64c-2.612,4.225-5.2,8.47-7.765,12.732c-2.559,4.267-5.127,8.527-7.622,12.845   c-2.495,4.318-5.028,8.606-7.493,12.948c-2.436,4.365-4.925,8.688-7.317,13.087c-2.396,4.397-4.798,8.788-7.114,13.248   c-2.344,4.437-2.344,4.437-2.344,4.437c-2.452,4.955-0.986,6.137,3.251,2.648c0.37-0.257,24.601-18.668,25.047-19.037   c0,0,0,0,3.78-3.302c3.808-3.278,7.53-6.625,11.259-9.967c3.732-3.339,7.368-6.754,11.056-10.127   c3.659-3.396,7.251-6.847,10.88-10.267c3.629-3.42,7.186-6.898,10.751-10.37c3.559-3.476,7.096-6.969,10.608-10.482   c3.526-3.502,7-7.045,10.491-10.575c3.456-3.557,6.948-7.087,10.369-10.672c3.441-3.569,6.871-7.147,10.266-10.753   c3.418-3.588,6.793-7.209,10.167-10.831c3.39-3.61,6.718-7.269,10.071-10.908c3.362-3.632,6.649-7.323,9.977-10.982   c3.33-3.657,6.588-7.371,9.886-11.053c3.303-3.678,6.531-7.417,9.8-11.122c3.272-3.703,6.481-7.456,9.715-11.189   c3.241-3.728,3.241-3.728,3.241-3.728c3.516-4.139,10.987-12.935,16.602-19.546l11.04-12.999   C360.154,243.33,357.665,237.468,349.009,236.914z" fill="#029B97"/><path d="M329.502,235.667c-8.656-0.553-17.982-1.119-20.725-1.258c-2.743-0.138-11.656-0.539-13.713-0.606   c-2.057-0.067-4.862-0.155-6.233-0.196s-6.669-0.143-8.726-0.18c-2.057-0.037-5.423-0.077-7.48-0.088   c-2.057-0.011-8.227,0.002-13.712,0.03c0,0,0,0-4.986,0.017c-4.294,0.105-4.294,0.105-4.294,0.105   c-4.723,0.102-7.082-1.979-5.241-4.624c1.84-2.645,5.3-7.652,7.689-11.126c2.388-3.475,6.281-9.173,8.65-12.664   s6.228-9.215,8.576-12.722c2.348-3.507,6.173-9.259,8.499-12.783c2.326-3.524,8.104-12.353,12.839-19.62   c0,0,2.573-3.949,8.064-12.61c2.765-4.315,2.765-4.315,2.765-4.315c2.992-4.785,7.259-11.651,9.482-15.257   c2.223-3.606,6.439-10.511,9.37-15.345c0,0,0,0,2.656-4.401c2.665-4.394,5.267-8.838,7.861-13.288   c2.621-4.429,5.154-8.927,7.711-13.406c2.527-4.503,2.527-4.503,2.527-4.503c2.718-5.002,1.469-5.991-2.775-2.197   c0,0,0,0-3.802,3.494c-3.771,3.518-7.568,7.017-11.276,10.585c-3.735,3.547-7.462,7.1-11.126,10.704   c-3.673,3.596-3.673,3.596-3.673,3.596c-4.031,3.963-9.783,9.653-12.782,12.644c-2.999,2.992-8.7,8.722-12.67,12.733   c0,0,0,0-3.564,3.682c-7.168,7.334-10.421,10.745-10.421,10.745c-5.985,6.278-13.251,13.929-16.146,17.003   s-7.615,8.118-10.488,11.208c-2.874,3.091-7.559,8.162-10.412,11.269c-2.853,3.107-7.505,8.205-10.338,11.328   c-2.833,3.123-7.453,8.245-10.267,11.383c-2.814,3.138-7.404,8.284-10.2,11.437c-2.796,3.152-8.125,9.177-11.842,13.389   c0,0,0,0-3.347,3.854c-3.348,3.853-3.348,3.853-3.348,3.853c-3.683,4.238-11.312,13.097-16.952,19.687l-8.36,9.768   c-5.64,6.59-3.182,12.57,5.461,13.29l15.682,1.306c8.644,0.72,17.399,1.449,19.456,1.62c2.057,0.171,5.423,0.43,7.48,0.575   c2.057,0.145,5.984,0.403,8.727,0.573c0,0,0,0,2.493,0.151c2.493,0.142,2.493,0.142,2.493,0.142   c2.743,0.141,6.669,0.331,8.726,0.423c2.057,0.092,5.423,0.222,7.48,0.288c2.057,0.066,8.228,0.217,13.713,0.335   c0,0,0,0,4.986,0.111c3.451,0.004,3.451,0.004,3.451,0.004c3.796,0.028,5.545,1.989,3.886,4.358c0,0,0,0-1.486,2.171   c-2.796,4.079-5.634,8.126-8.396,12.233c-2.772,4.099-5.569,8.178-8.302,12.307c-2.75,4.116-5.5,8.233-8.206,12.383   c-2.729,4.133-5.424,8.293-8.107,12.462c-2.703,4.153-5.336,8.362-8.004,12.543c-2.633,4.209-5.283,8.404-7.881,12.64   c-2.612,4.225-5.2,8.47-7.765,12.732c-2.559,4.267-5.127,8.527-7.622,12.845c-2.495,4.318-5.028,8.606-7.493,12.948   c-2.436,4.365-4.925,8.688-7.317,13.087c-2.396,4.397-4.798,8.788-7.114,13.248c-2.344,4.437-2.344,4.437-2.344,4.437   c-2.461,4.974-0.977,6.149,3.299,2.611c0,0,0,0,3.78-3.301c3.808-3.278,7.53-6.626,11.259-9.967   c3.732-3.339,7.368-6.754,11.056-10.127c3.659-3.397,7.251-6.847,10.88-10.267c3.629-3.421,7.186-6.898,10.751-10.37   c3.559-3.475,7.096-6.969,10.608-10.483c3.526-3.502,7-7.045,10.491-10.574c3.456-3.557,6.947-7.087,10.369-10.672   c3.441-3.569,6.871-7.147,10.266-10.753c3.418-3.588,6.793-7.209,10.167-10.832c3.39-3.609,6.718-7.269,10.07-10.908   c3.362-3.632,6.649-7.323,9.977-10.982c3.33-3.657,6.589-7.371,9.886-11.053c3.303-3.678,6.531-7.416,9.799-11.122   c3.272-3.703,6.481-7.456,9.715-11.189c3.241-3.728,3.241-3.728,3.241-3.728c3.516-4.139,10.987-12.935,16.602-19.546l11.04-12.999   c5.615-6.611,3.126-12.473-5.53-13.026L329.502,235.667z" fill="#FFFFFF"/></g></svg>