<?xml version="1.0" ?><!DOCTYPE svg  PUBLIC '-//W3C//DTD SVG 1.1//EN'  'http://www.w3.org/Graphics/SVG/1.1/DTD/svg11.dtd'><svg enable-background="new 0 0 512 512" height="512px" id="Layer_1" version="1.1" viewBox="0 0 512 512" width="512px" xml:space="preserve" xmlns="http://www.w3.org/2000/svg" xmlns:xlink="http://www.w3.org/1999/xlink"><g><circle cx="256.611" cy="256.611" fill="#F47258" r="254.389"/><path d="M418.335,161.284c-58.449-102.294-158.362-8.819-161.725-8.588c-2.945-0.202-79.941-71.917-138.285-21.024   c-5.44,3.103-38.562,31.326-48.439,48.612c-50.657,94.083,159.272,236.839,161.71,238.493v0.019c0,0,0.011-0.007,0.014-0.01   c0.004,0.002,0.014,0.01,0.014,0.01v-0.019c0.568-0.385,12.374-8.414,29.515-21.689c4.145-3.073,8.908-6.672,14.132-10.732   C326.005,348.464,459.904,238.487,418.335,161.284z" fill="#DD5843"/><path d="M418.335,161.284c-58.449-102.294-158.362-8.819-161.725-8.588c-3.363-0.231-103.276-93.706-161.725,8.588   c-50.657,94.083,159.272,236.839,161.71,238.493v0.019c0,0,0.011-0.007,0.014-0.01c0.004,0.002,0.014,0.01,0.014,0.01v-0.019   C259.064,398.123,468.993,255.367,418.335,161.284z" fill="#FFFFFF"/></g></svg>