<?xml version="1.0" ?><!DOCTYPE svg  PUBLIC '-//W3C//DTD SVG 1.1//EN'  'http://www.w3.org/Graphics/SVG/1.1/DTD/svg11.dtd'><svg enable-background="new 0 0 32 32" height="32px" id="i26" version="1.1" viewBox="0 0 32 32" width="32px" xml:space="preserve" xmlns="http://www.w3.org/2000/svg" xmlns:xlink="http://www.w3.org/1999/xlink"><path d="M16.505,9.943c1.242,0,2.249-1.007,2.249-2.249s-1.007-2.249-2.249-2.249s-2.249,1.007-2.249,2.249  C14.256,8.936,15.263,9.943,16.505,9.943z M23.576,7.501c0.326-0.366,0.322-0.929-0.025-1.287c-0.363-0.374-0.96-0.383-1.334-0.021  l-4.748,4.795c-0.524,0.001-1.429,0.002-1.967,0.003l0.001-0.003l-4.748-4.795C10.381,5.831,9.784,5.84,9.421,6.214  C9.075,6.572,9.07,7.135,9.396,7.501l4.645,5.351l0.208,5.086l-1.202,3.575l-3.321,0.183c-0.589,0.034-1.063,0.519-1.07,1.118  c-0.007,0.625,0.494,1.138,1.12,1.144l4.159,0.046c0.448,0.004,0.882-0.244,1.093-0.673l0.034-0.069l1.571-3.205l1.981,2.831  l-0.646,3.737c-0.1,0.583,0.269,1.155,0.853,1.294c0.608,0.145,1.219-0.23,1.364-0.838l1.011-4.236  c0.068-0.29,0.028-0.61-0.14-0.884l-0.041-0.067l-2.296-3.955l0.267-5.122L23.576,7.501z"/></svg>