<?xml version="1.0" encoding="iso-8859-1"?>
<!-- Generator: Adobe Illustrator 16.0.0, SVG Export Plug-In . SVG Version: 6.00 Build 0)  -->
<!DOCTYPE svg PUBLIC "-//W3C//DTD SVG 1.1//EN" "http://www.w3.org/Graphics/SVG/1.1/DTD/svg11.dtd">
<svg version="1.1" id="Capa_1" xmlns="http://www.w3.org/2000/svg" xmlns:xlink="http://www.w3.org/1999/xlink" x="0px" y="0px"
	 width="112.447px" height="112.447px" viewBox="0 0 112.447 112.447" style="enable-background:new 0 0 112.447 112.447;"
	 xml:space="preserve">
<g>
	<path d="M111.747,10.899L101.481,0.633c-0.935-0.467-2.333-0.467-3.269,0l-3.731,3.733l-1.867-1.867l-1.4,2.334L93.081,6.7
		l-1.867,1.866l-2.335-1.867l-1.864,1.867l1.864,1.867l-3.73,3.732c-0.936,0.934-0.936,2.333,0,3.268L69.357,33.224
		c-4.951-3.366-10.453-5.059-15.477-5.059c-5.133,0-9.801,1.867-13.533,5.133c-1.867,1.867-3.733,4.667-4.2,7.468
		c-1.866,5.6-7,9.333-12.601,9.333c-6.533,0-12.133,2.333-16.799,6.533c-10.734,10.732-8.4,30.333,5.133,43.399
		c7.933,7.934,17.732,12.133,26.6,12.133c6.533,0,12.6-2.334,17.268-6.532c4.199-4.199,6.532-10.268,6.532-16.802
		c0-6.065,3.733-11.198,9.334-12.6c2.8-0.935,5.134-2.334,7.468-4.199c7.112-7.114,6.86-19.248,0.099-29.033l15.768-15.767
		c0.933,0.934,2.333,0.934,3.267,0l3.733-3.733l1.865,1.867l1.866-1.867l-1.866-1.867l1.866-1.866l1.866,1.399l1.867-1.867
		l-1.867-1.866l4.199-3.266C112.681,13.232,112.681,11.833,111.747,10.899z M73.947,66.897c-1.399,1.399-2.8,1.867-4.667,2.801
		c-8.4,2.334-14,10.268-14.466,19.601c0,3.268-0.935,7.934-4.667,11.667c-3.732,3.732-8.866,4.667-12.133,4.667
		c-7.467,0-15.4-3.732-21.467-9.802C5.814,85.1,3.481,70.165,11.414,62.231c3.732-3.732,8.399-4.666,11.666-4.666
		c9.334,0,16.801-6.067,19.6-14.467c0.467-1.867,1.4-3.268,2.801-4.667c2.8-2.801,6.066-3.268,8.4-3.268
		c3.545,0,7.091,1.125,10.399,3.134L50.94,51.64c-0.564-0.084-1.137-0.143-1.725-0.143c-6.443,0-11.668,5.223-11.668,11.667
		c0,6.444,5.224,11.667,11.666,11.667c6.443,0,11.666-5.223,11.666-11.666c0-0.588-0.058-1.159-0.142-1.725l13.3-13.299
		C78.122,55.005,78.327,62.519,73.947,66.897z M90.28,16.033l9.801-9.8l1.866,1.866l-9.8,9.8L90.28,16.033z M96.347,22.099
		l-1.865-1.867l9.8-9.8l1.867,1.866L96.347,22.099z M25.547,72.14l14.52,14.519l-4.29,4.29l-14.519-14.52L25.547,72.14z"/>
</g>
<g>
</g>
<g>
</g>
<g>
</g>
<g>
</g>
<g>
</g>
<g>
</g>
<g>
</g>
<g>
</g>
<g>
</g>
<g>
</g>
<g>
</g>
<g>
</g>
<g>
</g>
<g>
</g>
<g>
</g>
</svg>
